PathFileType	3	(X/Y/Z)	.\ExampleData\generated\LevelGround_ccw_fast_01.trc
DataRate	CameraRate	NumFrames	NumMarkers	Units	OrigDataRate	OrigDataStartFrame	OrigNumFrames
200.0	200.0	8	28	mm	200.0	1488	5952	
Frame#	Time	L_ASIS	R_ASIS	L_PSIS	R_PSIS	R_Thigh_Upper	R_Knee_Lat	R_Thigh_Front	R_Thigh_Rear	L_Thigh_Upper	L_Thigh_Front	L_Thigh_Rear	L_Knee_Lat	L_Shank_Upper	L_Shank_Front	L_Shank_Rear	L_Ankle_Lat	R_Shank_Upper	R_Shank_Rear	R_Shank_Front	R_Ankle_Lat	R_Heel	R_Toe_Tip	R_Toe_Med	R_Toe_Lat	L_Heel	L_Toe_Tip	L_Toe_Med	L_Toe_Lat	
		X1	Y1	Z1	X2	Y2	Z2	X3	Y3	Z3	X4	Y4	Z4	X5	Y5	Z5	X6	Y6	Z6	X7	Y7	Z7	X8	Y8	Z8	X9	Y9	Z9	X10	Y10	Z10	X11	Y11	Z11	X12	Y12	Z12	X13	Y13	Z13	X14	Y14	Z14	X15	Y15	Z15	X16	Y16	Z16	X17	Y17	Z17	X18	Y18	Z18	X19	Y19	Z19	X20	Y20	Z20	X21	Y21	Z21	X22	Y22	Z22	X23	Y23	Z23	X24	Y24	Z24	X25	Y25	Z25	X26	Y26	Z26	X27	Y27	Z27	X28	Y28	Z28	
1488	7.44	-650.60224	1012.3387	-899.49152	-530.70051	1020.1284	-657.45814	-780.83258	1058.4778	-759.97206	-724.6455	1069.2147	-649.34994	-568.30454	832.9867	-563.34764	-564.2772	510.46535	-587.98622	-512.76655	781.13897	-594.43022	-569.64383	765.28642	-558.12837	-753.13027	860.9733	-907.20013	-720.98987	788.32654	-921.9723	-784.82388	795.94562	-880.80877	-741.21222	490.07666	-869.29736	-815.90119	360.11581	-866.66164	-782.32801	303.15612	-867.54878	-824.59787	292.02899	-844.06426	-785.60596	69.632731	-832.79918	-605.56235	371.165	-540.2156	-636.71818	310.57171	-547.90501	-577.11013	309.11186	-557.29689	-598.72859	68.643934	-578.38313	-668.63392	29.652935	-595.40122	-465.55051	50.294131	-669.88855	-474.14157	25.772684	-696.6492	-486.0837	24.343604	-577.86889	-822.40837	31.386517	-769.91964	-629.38873	44.362711	-873.63135	-612.6471	22.12982	-849.77553	-712.33366	15.580673	-918.17904
1489	7.445	-650.62131	1012.3379	-899.47974	-530.71058	1020.1275	-657.44766	-780.8813	1058.4652	-759.95548	-724.60775	1069.1823	-649.36815	-568.30997	832.98578	-563.34389	-564.27431	510.46999	-587.97902	-512.78029	781.13575	-594.42178	-569.64871	765.28446	-558.12127	-753.1353	860.97269	-907.18926	-721.00373	788.32913	-921.96237	-784.83049	795.94327	-880.80524	-741.21132	490.08156	-869.30502	-815.90357	360.114	-866.65945	-782.32877	303.15747	-867.54969	-824.59741	292.02716	-844.08533	-785.60509	69.631272	-832.79945	-605.56249	371.16386	-540.21321	-636.71724	310.57004	-547.90273	-577.11006	309.11024	-557.29516	-598.72871	68.642464	-578.38434	-668.63738	29.658089	-595.39915	-465.54983	50.298346	-669.88403	-474.141	25.771278	-696.65322	-486.08363	24.342547	-577.86883	-822.40721	31.384922	-769.91948	-629.38899	44.362451	-873.63295	-612.64657	22.129468	-849.77409	-712.33273	15.584128	-918.18004
1490	7.45	-650.63911	1012.3367	-899.46821	-530.72078	1020.1265	-657.43703	-780.92762	1058.4529	-759.93998	-724.56834	1069.1488	-649.38714	-568.31536	832.98495	-563.34068	-564.27341	510.47277	-587.97247	-512.79329	781.1332	-594.41391	-569.65331	765.28255	-558.11516	-753.13904	860.97229	-907.17873	-721.01283	788.33087	-921.96017	-784.83659	795.94115	-880.80318	-741.20791	490.08747	-869.31692	-815.90576	360.11292	-866.65769	-782.32935	303.15881	-867.5512	-824.59714	292.02655	-844.10504	-785.60407	69.629789	-832.80012	-605.56287	371.16272	-540.21131	-636.71642	310.56879	-547.90051	-577.10986	309.10814	-557.29385	-598.72868	68.641328	-578.38517	-668.64072	29.664279	-595.39633	-465.54914	50.302762	-669.87905	-474.13995	25.769496	-696.65908	-486.08357	24.341399	-577.86899	-822.40697	31.384674	-769.91868	-629.38895	44.362376	-873.63472	-612.64611	22.128898	-849.77273	-712.33211	15.58783	-918.18095
1491	7.455	-650.65546	1012.3353	-899.45707	-530.73095	1020.1256	-657.42649	-780.97131	1058.4407	-759.92559	-724.52811	1069.1148	-649.40642	-568.32084	832.98418	-563.33804	-564.27415	510.47392	-587.96678	-512.80559	781.13108	-594.40664	-569.65786	765.28086	-558.11007	-753.14146	860.97205	-907.16866	-721.01672	788.33073	-921.96514	-784.84212	795.93929	-880.80252	-741.20206	490.09437	-869.33326	-815.90779	360.11245	-866.65637	-782.32988	303.15997	-867.55308	-824.59711	292.02695	-844.12335	-785.60294	69.628287	-832.80125	-605.56347	371.16182	-540.20998	-636.71584	310.56815	-547.8985	-577.10965	309.10588	-557.29305	-598.72856	68.640786	-578.38563	-668.64373	29.670961	-595.39304	-465.54863	50.307149	-669.87413	-474.13841	25.767373	-696.66661	-486.08355	24.340314	-577.86938	-822.40771	31.385723	-769.91729	-629.38865	44.362542	-873.6366	-612.64575	22.128245	-849.77152	-712.33179	15.59141	-918.18164
1492	7.46	-650.67027	1012.334	-899.44647	-530.74086	1020.125	-657.41626	-781.01203	1058.4285	-759.91238	-724.488	1069.0812	-649.42539	-568.3264	832.98344	-563.33584	-564.27611	510.47385	-587.96214	-512.8172	781.12914	-594.39993	-569.66259	765.27957	-558.10592	-753.14259	860.97195	-907.15915	-721.01501	788.32818	-921.9761	-784.84703	795.93768	-880.8031	-741.19403	490.1021	-869.35359	-815.9097	360.1124	-866.65542	-782.33044	303.16081	-867.55513	-824.59725	292.02814	-844.14012	-785.60175	69.626783	-832.80279	-605.56425	371.1614	-540.20924	-636.71564	310.56834	-547.89679	-577.10954	309.10372	-557.29283	-598.72835	68.641064	-578.38579	-668.64602	29.677246	-595.38972	-465.54842	50.311275	-669.86983	-474.13631	25.765003	-696.67539	-486.08351	24.33958	-577.86989	-822.40941	31.387867	-769.91541	-629.38811	44.363009	-873.63851	-612.64546	22.127679	-849.77058	-712.33168	15.59461	-918.18203
1493	7.465	-650.68353	1012.3327	-899.43652	-530.75027	1020.1249	-657.4065	-781.04979	1058.4162	-759.90029	-724.44895	1069.0487	-649.44347	-568.33192	832.98269	-563.33388	-564.27858	510.47323	-587.95857	-512.828	781.12729	-594.3937	-569.66763	765.27883	-558.10259	-753.14253	860.97198	-907.15027	-721.00801	788.32349	-921.99117	-784.8513	795.93635	-880.80462	-741.18432	490.11036	-869.37678	-815.9115	360.11265	-866.65469	-782.33109	303.1613	-867.5571	-824.59756	292.02985	-844.15515	-785.60057	69.625313	-832.80463	-605.56516	371.16164	-540.20904	-636.71592	310.5695	-547.89543	-577.10958	309.10191	-557.29318	-598.72806	68.642264	-578.38574	-668.6471	29.682057	-595.38693	-465.54852	50.314967	-669.86651	-474.13357	25.762534	-696.68491	-486.08336	24.339527	-577.87034	-822.4119	31.390777	-769.91318	-629.38738	44.363815	-873.64032	-612.64521	22.127396	-849.76995	-712.33173	15.597267	-918.18209
1494	7.47	-650.69534	1012.3318	-899.42726	-530.75894	1020.1255	-657.39734	-781.08498	1058.4036	-759.88921	-724.41176	1069.018	-649.46018	-568.33726	832.98193	-563.33195	-564.28069	510.47285	-587.95591	-512.83772	781.12569	-594.38785	-569.67301	765.27873	-558.09987	-753.14147	860.97221	-907.14205	-720.99684	788.31757	-922.0083	-784.85496	795.93535	-880.80672	-741.17365	490.11881	-869.40137	-815.91323	360.11311	-866.65399	-782.33191	303.16151	-867.55873	-824.59806	292.0318	-844.16828	-785.59952	69.623917	-832.80658	-605.56613	371.1626	-540.20933	-636.71672	310.57167	-547.89445	-577.10982	309.1006	-557.29406	-598.72769	68.644317	-578.3856	-668.64654	29.684495	-595.38515	-465.54884	50.318131	-669.86432	-474.13017	25.76013	-696.6948	-486.08298	24.340347	-577.87056	-822.41497	31.394052	-769.9108	-629.3865	44.364948	-873.64195	-612.64492	22.127577	-849.76965	-712.33193	15.599303	-918.18188
1495	7.475	-650.70588	1012.3312	-899.41868	-530.76677	1020.1268	-657.38889	-781.11835	1058.3906	-759.87895	-724.37716	1068.9895	-649.47517	-568.34227	832.98109	-563.32996	-564.2818	510.47321	-587.95395	-512.84603	781.12458	-594.38232	-569.67855	765.27929	-558.09763	-753.1396	860.97278	-907.1346	-720.98317	788.31141	-922.02551	-784.85808	795.93477	-880.80904	-741.16284	490.12716	-869.42583	-815.91488	360.11377	-866.65316	-782.33295	303.16156	-867.55985	-824.59883	292.03378	-844.17953	-785.59869	69.622629	-832.80851	-605.56709	371.16422	-540.21005	-636.71803	310.57474	-547.89386	-577.11025	309.09984	-557.29543	-598.72727	68.647017	-578.38551	-668.64425	29.68421	-595.38465	-465.54929	50.320747	-669.86322	-474.12612	25.757948	-696.70466	-486.08229	24.342036	-577.87048	-822.41833	31.397308	-769.90851	-629.38559	44.366323	-873.64335	-612.64456	22.128318	-849.76964	-712.33235	15.600719	-918.18153
